/* XPM */
static char * C:\Users\micha\OneDrive\Bilder\Binary\bitcoin16_xpm[] = {
"16 16 103 2",
"  	c None",
". 	c #237FC9",
"+ 	c #2E85CA",
"@ 	c #3588CA",
"# 	c #398ACA",
"$ 	c #3789CA",
"% 	c #3086CA",
"& 	c #2681C9",
"* 	c #1C7CC6",
"= 	c #2D85C9",
"- 	c #3E8BCA",
"; 	c #4791CA",
"> 	c #4A92CB",
", 	c #4A92CA",
"' 	c #4891CB",
") 	c #418DCA",
"! 	c #3287CA",
"~ 	c #227FC7",
"{ 	c #3085C9",
"] 	c #458FCA",
"^ 	c #4C93CB",
"/ 	c #4D94CB",
"( 	c #4C93CA",
"_ 	c #4C94CB",
": 	c #4C94CA",
"< 	c #4790CA",
"[ 	c #3889CA",
"} 	c #217EC7",
"| 	c #2882C8",
"1 	c #438ECA",
"2 	c #4D96CB",
"3 	c #4F9ACD",
"4 	c #509ECF",
"5 	c #53A3D2",
"6 	c #52A1D1",
"7 	c #509CCF",
"8 	c #4E98CC",
"9 	c #3386C9",
"0 	c #3689CB",
"a 	c #4B93CA",
"b 	c #4E99CC",
"c 	c #4F9CCE",
"d 	c #51A1D0",
"e 	c #52A1CF",
"f 	c #4D98CB",
"g 	c #4F9BCD",
"h 	c #4C95CB",
"i 	c #3F8DCA",
"j 	c #2481C9",
"k 	c #227FC9",
"l 	c #3E8DCA",
"m 	c #4D94CA",
"n 	c #4D95CB",
"o 	c #52A3D1",
"p 	c #509DCE",
"q 	c #4F9CCD",
"r 	c #4590CA",
"s 	c #2C84C9",
"t 	c #428DCA",
"u 	c #519ECF",
"v 	c #53A3D1",
"w 	c #519FD0",
"x 	c #519FCF",
"y 	c #4E96CC",
"z 	c #4D93CB",
"A 	c #3E8CCA",
"B 	c #509ECE",
"C 	c #509FCF",
"D 	c #4C95CA",
"E 	c #4C92C9",
"F 	c #4E97CC",
"G 	c #4F9DCE",
"H 	c #4E96CB",
"I 	c #2D84C9",
"J 	c #3587CA",
"K 	c #4F9BCE",
"L 	c #52A2D0",
"M 	c #4E9ACD",
"N 	c #4B93CB",
"O 	c #2480C9",
"P 	c #2881C8",
"Q 	c #408ECA",
"R 	c #4E99CD",
"S 	c #4690CA",
"T 	c #3286CA",
"U 	c #418DCB",
"V 	c #4C92CA",
"W 	c #4690CB",
"X 	c #207EC7",
"Y 	c #2B83C9",
"Z 	c #4590CB",
"` 	c #4A91CA",
" .	c #4B92CA",
"..	c #4791CB",
"+.	c #3D8CCB",
"@.	c #2F85C9",
"#.	c #207DC7",
"$.	c #207EC9",
"%.	c #2882C9",
"&.	c #3187C8",
"*.	c #3085C8",
"=.	c #2B84C9",
"-.	c #237FC7",
"                                ",
"                                ",
"        . + @ # $ % &           ",
"    * = - ; > > , ' ) ! ~       ",
"    { ] ^ ^ / / ( _ : < [ }     ",
"  | 1 ^ / 2 3 4 5 6 7 8 < 9     ",
"  0 a ^ / b c d e 8 f g h i j   ",
"k l ( / m n 4 o p q 4 3 / r s   ",
"j t ^ ( h u v w x 4 y z ^ ; {   ",
"k A ^ n B C D E F G H / ^ r I   ",
"  J , K L g 8 3 p M : / N A O   ",
"  P Q y 8 R K g 8 : ^ ^ S T     ",
"    I U V n n D ( z ( W @ X     ",
"      Y # Z `  ., ..+.@.#.      ",
"        $.%.@.&.*.=.-.          ",
"                                "};
