/* XPM */
static char * C:\Users\micha\OneDrive\Bilder\Binary\bitcoin32_xpm[] = {
"32 32 177 2",
"  	c None",
". 	c #1A7DC7",
"+ 	c #1B7DC8",
"@ 	c #1C7CC7",
"# 	c #1D7EC8",
"$ 	c #1E7EC9",
"% 	c #2080CA",
"& 	c #2080C9",
"* 	c #2181CA",
"= 	c #1F80CA",
"- 	c #1C7EC8",
"; 	c #1A7DC8",
"> 	c #1C7EC9",
", 	c #1E80CA",
"' 	c #2281CA",
") 	c #2883CA",
"! 	c #2E85CA",
"~ 	c #3488CB",
"{ 	c #388ACB",
"] 	c #3A8ACB",
"^ 	c #2E86CA",
"/ 	c #2782CA",
"( 	c #2280CA",
"_ 	c #1E7FCA",
": 	c #1C7DC8",
"< 	c #1A7CC7",
"[ 	c #1D7ECA",
"} 	c #2381CA",
"| 	c #2D85CA",
"1 	c #448FCB",
"2 	c #4991CB",
"3 	c #4B92CB",
"4 	c #4C93CB",
"5 	c #197BC7",
"6 	c #1A7CC8",
"7 	c #1F7FCA",
"8 	c #2A83CA",
"9 	c #4790CB",
"0 	c #4B93CB",
"a 	c #4D94CB",
"b 	c #1F7EC9",
"c 	c #1A7DC9",
"d 	c #2F86CA",
"e 	c #418DCB",
"f 	c #428ECB",
"g 	c #3086CA",
"h 	c #1C7DC9",
"i 	c #207FCA",
"j 	c #458FCB",
"k 	c #3187CA",
"l 	c #1B7CC8",
"m 	c #1E7FC9",
"n 	c #438ECB",
"o 	c #4C93CA",
"p 	c #2682CA",
"q 	c #3F8CCB",
"r 	c #4D95CB",
"s 	c #4E96CC",
"t 	c #4E97CC",
"u 	c #509DCF",
"v 	c #519FD0",
"w 	c #4E98CD",
"x 	c #4D94CA",
"y 	c #3F8DCB",
"z 	c #2783CA",
"A 	c #207FC9",
"B 	c #3488CA",
"C 	c #4E98CC",
"D 	c #519ED0",
"E 	c #53A4D3",
"F 	c #55A8D4",
"G 	c #57ABD6",
"H 	c #5AB1DA",
"I 	c #5AB2DA",
"J 	c #59AFD8",
"K 	c #57AAD6",
"L 	c #55A8D5",
"M 	c #53A3D2",
"N 	c #4F9ACD",
"O 	c #4A92CB",
"P 	c #3588CA",
"Q 	c #1B7EC8",
"R 	c #54A5D3",
"S 	c #57ACD6",
"T 	c #56AAD5",
"U 	c #52A1D0",
"V 	c #5AB1D9",
"W 	c #52A1D1",
"X 	c #4F9CCE",
"Y 	c #519FCF",
"Z 	c #1B7CC7",
"` 	c #3186CA",
" .	c #509CCE",
"..	c #4D96CB",
"+.	c #4C94CA",
"@.	c #52A0D0",
"#.	c #58ADD7",
"$.	c #4F9BCE",
"%.	c #3287CA",
"&.	c #2180CA",
"*.	c #3A8BCA",
"=.	c #52A2D1",
"-.	c #53A2D1",
";.	c #55A7D4",
">.	c #4F99CD",
",.	c #3B8BCB",
"'.	c #2482CB",
").	c #58AED8",
"!.	c #4C95CB",
"~.	c #56A8D5",
"{.	c #509CCF",
"].	c #2481C9",
"^.	c #1D7DC8",
"/.	c #5BB2DA",
"(.	c #59AED8",
"_.	c #56A9D5",
":.	c #53A4D2",
"<.	c #4D96CC",
"[.	c #4590CB",
"}.	c #1B7DC7",
"|.	c #2984CA",
"1.	c #4690CB",
"2.	c #5BB4DB",
"3.	c #56A8D4",
"4.	c #4791CB",
"5.	c #2A84CA",
"6.	c #1D7CC7",
"7.	c #54A6D3",
"8.	c #4E99CC",
"9.	c #1C7DC7",
"0.	c #1D7DC9",
"a.	c #4F9BCD",
"b.	c #55A6D3",
"c.	c #1A7BC7",
"d.	c #2381C9",
"e.	c #408DCB",
"f.	c #58ADD8",
"g.	c #4D97CB",
"h.	c #56AAD6",
"i.	c #2482CA",
"j.	c #388ACA",
"k.	c #509BCE",
"l.	c #4D93CA",
"m.	c #398BCB",
"n.	c #1E7EC8",
"o.	c #4891CB",
"p.	c #58AED7",
"q.	c #57ACD7",
"r.	c #1D7EC9",
"s.	c #519ECF",
"t.	c #509ECF",
"u.	c #52A0D1",
"v.	c #2581C9",
"w.	c #1A7CC9",
"x.	c #1F7FC9",
"y.	c #54A6D4",
"z.	c #3B8BCA",
"A.	c #4C94CB",
"B.	c #3C8BCB",
"C.	c #2983CA",
"D.	c #2C84CA",
"E.	c #1E7ECA",
"F.	c #3D8BCB",
"G.	c #4992CB",
"H.	c #3D8CCB",
"I.	c #2B84CA",
"J.	c #2582CA",
"K.	c #2581CA",
"L.	c #3388CB",
"M.	c #3E8CCB",
"N.	c #3487CA",
"O.	c #2882CA",
"P.	c #1F80C9",
"Q.	c #2280C9",
"R.	c #1C7CC8",
"S.	c #1D7FCA",
"T.	c #197CC7",
"                            . + @                               ",
"                    + # $ % & * & % = - ;                       ",
"                > , ' ) ! ~ { ] { ~ ^ / ( _ :                   ",
"            < [ } | ] 1 2 3 4 4 4 3 2 1 ] ! } # 5               ",
"          6 7 8 ] 9 0 4 4 a a a a a 4 4 3 9 ] 8 b c             ",
"        : 7 d e 3 4 a a a a a a a a a a 4 4 3 f g % h           ",
"      ; i g 1 4 4 a a a a a a a a a a a a a 4 4 j k % l         ",
"      m | n 4 a a a a a a a a a a o o o o a a a 4 1 | $         ",
"    > p q 4 a a a a a a a a a r s t u v w t r x a 4 y z h       ",
"    A B 2 4 a a a a a a C D E F G H I J K L M N a 4 O P &       ",
"  Q z f 4 a a a a a t R S T R U T V W w w w X Y C a 4 f z Z     ",
"  $ ` 2 4 a a a a a N M  ...+.@.#.W a x +.+.+.@.$.a a O %.m     ",
"  &.*.4 a a a a a a x x o x @.#.=.+.o a +.C -.;.>.a a 4 ,.&.    ",
"Z '.e 4 a a a a a a a +.+.@.).M !.r >.D R K ~.{.a a a 4 f ].<   ",
"^.z j 4 a a a a a a a s -./.(.M ;._.T F :.u <.a a a a 4 [.) }.  ",
"^.|.1.4 a a a a a a a :.2.(.3._.S _.=.C a a a a a a a a 4.5.6.  ",
"> ) 1.4 a a a a o o u #.7...r r ..8.v =.<.a a a a a a a 4.|.9.  ",
"0.p 1 4 a a a o o a.S 7...o a a a +.r b.u a a a a a a 4 j / +   ",
"c.d.e.4 a a a x N f._.g.+.a a a a x 8.h.{.a a a a a a 4 e i.    ",
"  A j.3 a a a >.#.H k.+.a a a l.a N _.F ..a a a a a a 4 m.&     ",
"  n.! o.4 a t K p.=...x x x a t -.q.F C o a a a a a 4 o.d r.    ",
"  l '.q 4 a s.G k. .W t.u @.7.G K u...o a a a a a a 4 e.v.w.    ",
"    x.` o.4 <.C +.r v y.K _.R s.t x o a a a a a a 4 o.%.b       ",
"    Z d.z.3 4 A.a a a r ..r +.A.A.x a a a a a a a 0 B.} Z       ",
"      > C.e.3 4 a a a a a A.+.a a a a a a a a a 4 e.|.h         ",
"        $ D.e.3 4 a a a a a a a a a a a a a 4 0 e D.E.          ",
"          E.8 F.G.4 a a a a a a a a a a a 4 2 H.I.b             ",
"            r.J.B n O 4 4 a a a a a 4 4 O n P K.r.              ",
"              > = ) L.M.[.2 O O O 2 [.q N.O.A -                 ",
"                  r.P.} ) | k %.k ! ) Q.$ R.                    ",
"                      w.9.# r.m $ S.- T.                        ",
"                                                                "};
