/* XPM */
static char * C:\Users\micha\OneDrive\Bilder\Binary\bitcoin64_xpm[] = {
"64 64 217 2",
"  	c None",
". 	c #1C7EC7",
"+ 	c #1C7EC8",
"@ 	c #1D7EC9",
"# 	c #1D7ECA",
"$ 	c #1D7DC9",
"% 	c #1E7EC8",
"& 	c #1F7EC9",
"* 	c #1F80CA",
"= 	c #2080CA",
"- 	c #2081CA",
"; 	c #2081CB",
"> 	c #207FCA",
", 	c #1F80C9",
"' 	c #1C7DC8",
") 	c #1E7EC9",
"! 	c #2181CB",
"~ 	c #1E7ECA",
"{ 	c #1F80CB",
"] 	c #2281CB",
"^ 	c #2381CB",
"/ 	c #2382CB",
"( 	c #1E7FC9",
"_ 	c #1D7FCA",
": 	c #2582CB",
"< 	c #2984CB",
"[ 	c #2F86CB",
"} 	c #3488CB",
"| 	c #388ACB",
"1 	c #3B8BCB",
"2 	c #3D8CCB",
"3 	c #3E8DCB",
"4 	c #3A8BCB",
"5 	c #378ACB",
"6 	c #3388CB",
"7 	c #2E86CB",
"8 	c #2883CB",
"9 	c #2482CB",
"0 	c #1B7DC8",
"a 	c #1C7EC9",
"b 	c #2682CB",
"c 	c #408DCB",
"d 	c #4690CB",
"e 	c #4992CB",
"f 	c #4B92CB",
"g 	c #4B93CB",
"h 	c #4C93CB",
"i 	c #4A92CB",
"j 	c #4991CB",
"k 	c #458FCB",
"l 	c #3F8DCB",
"m 	c #3689CB",
"n 	c #2D85CB",
"o 	c #2A84CB",
"p 	c #428ECB",
"q 	c #4D94CB",
"r 	c #4791CB",
"s 	c #3387CB",
"t 	c #3789CB",
"u 	c #2783CB",
"v 	c #438FCB",
"w 	c #3086CB",
"x 	c #1E7FCA",
"y 	c #1F7FCA",
"z 	c #2B84CB",
"A 	c #3C8BCB",
"B 	c #4790CB",
"C 	c #1E80CA",
"D 	c #2C85CB",
"E 	c #1A7EC9",
"F 	c #1F7FC9",
"G 	c #4590CB",
"H 	c #448FCB",
"I 	c #2E85CB",
"J 	c #1C7DC9",
"K 	c #418ECB",
"L 	c #4C94CB",
"M 	c #4C93CA",
"N 	c #1D7EC8",
"O 	c #1D7FC9",
"P 	c #4C94CA",
"Q 	c #4F9ACD",
"R 	c #4E99CD",
"S 	c #3589CB",
"T 	c #1B7CC9",
"U 	c #3287CB",
"V 	c #4D94CA",
"W 	c #4D95CB",
"X 	c #4E96CC",
"Y 	c #4E98CD",
"Z 	c #4F99CD",
"` 	c #53A3D2",
" .	c #5CB3DB",
"..	c #58AED8",
"+.	c #509CCF",
"@.	c #4F99CE",
"#.	c #4D96CC",
"$.	c #4E97CC",
"%.	c #4F9ACE",
"&.	c #519FD0",
"*.	c #54A4D2",
"=.	c #56A9D5",
"-.	c #59ADD8",
";.	c #5AB1DA",
">.	c #5DB6DD",
",.	c #5FBADF",
"'.	c #61BEE1",
").	c #60BCE0",
"!.	c #5EB7DD",
"~.	c #5BB3DB",
"{.	c #59AFD9",
"].	c #56A9D6",
"^.	c #52A1D1",
"/.	c #4F98CC",
"(.	c #1B7EC9",
"_.	c #3588CB",
":.	c #52A0D1",
"<.	c #56A8D5",
"[.	c #5AB0D9",
"}.	c #5DB7DD",
"|.	c #5EBADE",
"1.	c #5FBBDF",
"2.	c #60BBDF",
"3.	c #61BEE2",
"4.	c #5EB9DE",
"5.	c #5BB1DA",
"6.	c #5AB0DA",
"7.	c #5BB2DB",
"8.	c #5CB4DC",
"9.	c #5CB5DC",
"0.	c #59AFD8",
"a.	c #53A2D1",
"b.	c #4891CB",
"c.	c #438ECB",
"d.	c #52A0D0",
"e.	c #57ABD6",
"f.	c #5CB5DB",
"g.	c #59AED8",
"h.	c #5EB8DE",
"i.	c #509DCF",
"j.	c #54A5D3",
"k.	c #58ADD7",
"l.	c #52A2D1",
"m.	c #58ACD7",
"n.	c #55A5D3",
"o.	c #519DCF",
"p.	c #4D96CB",
"q.	c #55A7D4",
"r.	c #5FBADE",
"s.	c #54A4D3",
"t.	c #1B7CC7",
"u.	c #3F8CCB",
"v.	c #56A7D5",
"w.	c #5FB9DE",
"x.	c #55A5D4",
"y.	c #4E97CB",
"z.	c #3889CB",
"A.	c #529FD0",
"B.	c #55A6D4",
"C.	c #519ECF",
"D.	c #4D93CA",
"E.	c #5BB2DA",
"F.	c #5FB9DF",
"G.	c #55A8D4",
"H.	c #1D7DC8",
"I.	c #4D97CC",
"J.	c #1E7FC8",
"K.	c #60BBE0",
"L.	c #57AAD6",
"M.	c #519ED0",
"N.	c #509BCE",
"O.	c #5EB8DD",
"P.	c #55A8D5",
"Q.	c #3288CB",
"R.	c #509ACE",
"S.	c #5CB4DB",
"T.	c #54A3D2",
"U.	c #58ADD8",
"V.	c #62BFE2",
"W.	c #61BDE1",
"X.	c #509CCE",
"Y.	c #4E98CC",
"Z.	c #5BB4DB",
"`.	c #57A9D6",
" +	c #56A7D4",
".+	c #56A6D4",
"++	c #1D7CC9",
"@+	c #60BDE1",
"#+	c #51A0D0",
"$+	c #57ACD7",
"%+	c #1C7CC8",
"&+	c #60BDE0",
"*+	c #5AB1D9",
"=+	c #509BCF",
"-+	c #5AAFD9",
";+	c #5AB2DA",
">+	c #57A8D5",
",+	c #5DB6DC",
"'+	c #2080CB",
")+	c #5EB9DF",
"!+	c #3E8CCB",
"~+	c #57ABD7",
"{+	c #398ACB",
"]+	c #5EB7DE",
"^+	c #5CB6DC",
"/+	c #3187CB",
"(+	c #59B0D9",
"_+	c #1E80C9",
":+	c #1C7FC9",
"<+	c #3688CB",
"[+	c #2481CB",
"}+	c #398BCB",
"|+	c #3A8ACB",
"1+	c #3C8CCB",
"2+	c #408ECB",
"3+	c #2B85CB",
"4+	c #1E80CB",
"                                                        . + @ # $ + %                                                           ",
"                                              @ & * * * = = - - = ; = > * , @ '                                                 ",
"                                        @ ) = = = ! ! ! ! ! ! ! ! ! ! ! ! = = * * ~ '                                           ",
"                                    ) { - = ! ! ! ! ! ! ! ] ^ / ^ ] ! ! ! ! ! ! = = * ( $                                       ",
"                                _ = = ! ! ! ! ] : < [ } | 1 2 3 2 4 5 6 7 8 9 ! ! ! ! = = ) 0                                   ",
"                            a ) = ! ! ! ] b [ | c d e f g h h h h h h i j k l m n : ! ! ! = * @                                 ",
"                          ( = = ! ! ] o m p j g h h q q q q q q q q q q q h h f r l s 8 ! ! ! = * $                             ",
"                      0 ) = ! ! ] o t k f h q q q q q q q q q q q q q q q q q q h h i p } u ! ! = , @                           ",
"                    $ * = ! ! b } v f h q q q q q q q q q q q q q q q q q q q q q q h h i c w ^ ! ! - x                         ",
"                  ' y = ! ! z A e h q q q q q q q q q q q q q q q q q q q q q q q q q q h h B | 8 ! ! = C                       ",
"                $ * = ! ] w p g h q q q q q q q q q q q q q q q q q q q q q q q q q q q q q h i l D ! ! = (                     ",
"              E F = ! ^ 6 G h q q q q q q q q q q q q q q q q q q q q q q q q q q q q q q q q h h p 7 ! ! = ~                   ",
"              * = ! ^ } r h q q q q q q q q q q q q q q q q q q q q q q q q q q q q q q q q q q q h H [ ! ! = (                 ",
"            @ = ! ] 6 r h q q q q q q q q q q q q q q q q q q q q q q q q q q q q q q q q q q q q q h H I ! ! * J               ",
"          ' * ! ! [ k h q q q q q q q q q q q q q q q q q q q q q q q q q q q q q q q q q q q q q q q h K o ! = *               ",
"          y = ! o p h q q q q q q q q q q q q q q q q q q q q q q q q q q q q L M q q q q q q q q q q q g A b ! = N             ",
"        O = ! : A h q q q q q q q q q q q q q q q q q q q q q q q q q q M P Q R M q q q q q q q q q q q h e S ] ! = +           ",
"      T * ! ! U j h q q q q q q q q q q q q q q q q q q q q q V q W X Y Z `  ...+.@.Y #.q q V q q q q q q h G D ! = y           ",
"      ) = ! 8 p h q q q q q q q q q q q q q q q q q q q $.%.&.*.=.-.;. .>.,.'.).!.>.~.{.].^./.q q q q q q q g A 9 ! * (.        ",
"      * ! ] _.i q q q q q q q q q q q q q q q q W Z :.<.[.}.|.1.2.,.,.'.3.4.5.6.6.6.;.7.8.9.0.a.W q q q q q h b.[ ! = O         ",
"    @ = ! 8 c.h q q q q q q q q q q q q q q X d.e.f.,.2.4.8.g.<.` ^.0.).h.` $.X X X X $.Z i.j.k.l.q q q q q q h 2 9 ! *         ",
"    ( = ! 6 i q q q q q q q q q q q q q q %.m.4.).!.g.n.o.Y W q p.q.r.h.s.W V q q q q q q P P o.=.Y q q q q q h r n ! = @       ",
"  t.* ! 9 u.h q q q q q q q q q q q q q q j.4. .v.+.p.q q q M p.q.r.w.x.W q q q q q q q q q V y.e.o.q q q q q q g z.] = )       ",
"  @ = ! D B h q q q q q q q q q q q q q q Z A.Z q q V q q q p.B.r.,.B.W q q q q q q q q q V V C.;.C.q q q q q q h p b ! F       ",
"  C = ! S f q q q q q q q q q q q q q q q q q D.q q q q V p.B.w.,.q.W M q q q q q q q q V V C.;.E.Z q q q q q q q b.n ! = %     ",
"  * ! ^ 2 h q q q q q q q q q q q q q q q q q q q q q q p.B.F.,.G.#.M q q q q q q q P L Q B.9.h.s.q q q q q q q q g S ! = @     ",
"H.* ! u v h q q q q q q q q q q q q q q q q q q q q V p.B.w.1.=.I.q q q q q q q q $.C.<. .1.>.j.p.q q q q q q q q h 2 ^ = (     ",
"J.= ! z r q q q q q q q q q q q q q q q q q q q q P p.B.F.K.L.$.P q q q q p.Z A.<.;.h.K.!.m.M.W q q q q q q q q q h p : ! ,     ",
") = ! [ i q q q q q q q q q q q q q q q q q q q q W j.w.).e.Y q W $.N.d.B.g.8.w.1.O.;.P.o.p.q q q q q q q q q q q h d < ! *     ",
"~ = ! Q.i q q q q q q q q q q q q q q q q q q p.R.B.w.'.S.*.T.<.U.E.}.w.,.}.E.e.` +.$.q q q q q q q q q q q q q q q b.z ! =     ",
"@ = ! S f q q q q q q q q q q q q q q q q q W B.}.K.V.W.,.w.2.).W.).9.m.` X.Y.W q q q q q q q q q q q q q q q q q q e 7 ! ,     ",
"x = ! 5 g q q q q q q q q q q q q q q q q q W m.'.'.Z.`. +.+v.`.k.[.[.U.q.M.X q q q q q q q q q q q q q q q q q q q i [ ! * ++  ",
"( = ! 5 g q q q q q q q q q q q q q q q q q A.>.@+[.X.q q q q q W $.Q #+P.0.$+C.q q q q q q q q q q q q q q q q q q i [ ! , %+  ",
") = ! S f q q q q q q q q q q q q q q q q o.~.&+{.X.M q q q q q q q q P W N.].*+M.q q q q q q q q q q q q q q q q q e I ! =     ",
"# = ! U i q q q q q q q q q q q q q M P X.;.&+[.=+q q q q q q q q q q q q q Y 0.U.X q q q q q q q q q q q q q q q q b.z ! *     ",
"@ ; ! [ i q q q q q q q q q q q q M M Q -+&+;++.q q q q q q q q q q q q q q q >+,+N.q q q q q q q q q q q q q q q h d < ! F     ",
"@ '+! z b.q q q q q q q q q q q q M Q g.&+9.&.P q q q q q q q q q q q q q V p.-.}.X.q q q q q q q q q q q q q q q h p b ! *     ",
"  = ! u H h q q q q q q q q q q V Z U.@+)+` q q q q q q q q q q q q q q q V A.}.E.Y.q q q q q q q q q q q q q q q h 2 ^ = (     ",
"  y ! ^ !+h q q q q q q q q q q Z m.@+W.~+p.P q q q q q q q q q q q q q q X.;.1.B.q q q q q q q q q q q q q q q q g m ! ; a     ",
"  x = ! S f q q q q q q q q q Y.e.).W.,+o.V q q q q q q q q q q q q q q C.;.).{.R q q q q q q q q q q q q q q q q e 7 ! , a     ",
"  @ - ! n r h q q q q q q q #.<.K.).[.=.p.V q q q q q q q q q q q q $.s.9.).[.X.M q q q q q q q q q q q q q q q h v u ! *       ",
"    = ! : c h q q q q q q W B.,.&+k.d.s.q q q q q q q q q q q D.W &.U.,.1.k.N.M M q q q q q q q q q q q q q q q h {+] = y       ",
"    & = ! _.f q q q q q q ^.]+W.0.Q Z P.Z q V q q q V V q q $.A.~+O.).9.B.Y.V q q q q q q q q q q q q q q q q h b.7 ! ; @       ",
"    @ '+! < H h q q q q $.0.&+[.X.M W <.~+M.Y.p.p.p.$.Q &.q.[.4.).>.L.+.q M q q q q q q q q q q q q q q q q q h !+: = C         ",
"      y ! ] t f q q q q X =.$+X.q q q N.g.^+E.{.{.-+E.,+,.).,. .<.+.W V q q q q q q q q q q q q q q q q q q h j /+! = N         ",
"      ( ; ! o v h q q q q p.#.L q q q q Z j.{.9.h.h.!.8.(+<.:.Z q q V q q q q q q q q q q q q q q q q q q q h !+: ! *           ",
"        _+= ] } i h q q q q L q q q q q q q X Z X.+.N.Y p.q L L q q q q q q q q q q q q q q q q q q q q q h d 7 ! - )           ",
"        :+= ! b !+h q q q q q q q q q q q q q q q q q L P q q q q q q q q q q q q q q q q q q q q q q q q i 5 ^ = ,             ",
"          ( = ! D H h q q q q q q q q q q q q q q q q q q q q q q q q q q q q q q q q q q q q q q q q q h l u ! ; H.            ",
"          (.* ! ! U r h q q q q q q q q q q q q q q q q q q q q q q q q q q q q q q q q q q q q q q q h c.D ! = )               ",
"            @ * ! ^ <+j h q q q q q q q q q q q q q q q q q q q q q q q q q q q q q q q q q q q q q h G w ! = *                 ",
"              x = ! 9 t j h q q q q q q q q q q q q q q q q q q q q q q q q q q q q q q q q q q q h d U ] ! * 0                 ",
"                y = ! 9 m b.h q q q q q q q q q q q q q q q q q q q q q q q q q q q q q q q q q h H /+] ! * (                   ",
"                  * = ! ^ s k h q q q q q q q q q q q q q q q q q q q q q q q q q q q q q q h g K 7 ] ! * (                     ",
"                    & = ! ] 7 l f h q q q q q q q q q q q q q q q q q q q q q q q q q q q h j 1 o ! ! * )                       ",
"                      ~ - ! ! 8 5 d h h q q q q q q q q q q q q q q q q q q q q q q q h f v 6 : ! = , (                         ",
"                        @ * = ! ] n 1 B g h q q q q q q q q q q q q q q q q q q q h f k t o ! ! = y 0                           ",
"                          J * = ! ! [+n }+H i h h q q q q q q q q q q q q q h h j p t o ] ! = * )                               ",
"                              ~ * = ! ! ] < 6 A H b.i h h h h h h h h g i r p |+w u ] ! ! = C $                                 ",
"                                J ~ * = ! ! ! ^ u n s | 1+3 K p 2+!+1 t U 3+b ] ! ! = = y )                                     ",
"                                    + 4+* = = ! ! ! ! ] ] 9 : : : ^ ] ! ! ! ! ! = , F )                                         ",
"                                          a ~ * = = = ! ! ! ! ! ! ! ! ! = '+= x N J                                             ",
"                                                J @ ( x y y , , * * * * & a                                                     ",
"                                                                                                                                "};
